<?xml version="1.0" encoding="utf-8"?>
<!-- Generator: Adobe Illustrator 25.0.0, SVG Export Plug-In . SVG Version: 6.00 Build 0)  -->
<svg version="1.1" id="Layer_1" xmlns="http://www.w3.org/2000/svg" xmlns:xlink="http://www.w3.org/1999/xlink" x="0px" y="0px"
	 viewBox="0 0 3000 3000" style="enable-background:new 0 0 3000 3000;" xml:space="preserve">
<g>
	<path d="M671.49,867.36c-693.26,0-671.47,411.91-671.47,411.91s0,5.32,0,401.01s570.66,413.19,570.66,413.19h654.1l457.6-1226.1
		C1682.38,867.36,1364.75,867.36,671.49,867.36z M830.43,1751.6c0,0-183.04,0-241.67,0s-57.12-50.85-57.12-50.85s0-365.03,0-428.29
		c0-63.26,50.82-57.87,50.82-57.87h445.82L830.43,1751.6z"/>
	<polygon points="1357.89,2093.46 1809.71,867.36 2343.27,867.36 1888.3,2093.46 	"/>
	<polygon points="2019.6,2093.46 2475.1,867.36 3000,867.36 2549.69,2093.46 	"/>
</g>
</svg>
